<svg xmlns="http://www.w3.org/2000/svg" width="1200" height="1600" viewBox="0 0 1200 1600" role="img" aria-labelledby="title desc"><title id="title">Give two storage levels a purpose</title><desc id="desc">An original stacked niche concept relates separate groups of shower items to usable reach, light and surrounding finish questions.</desc>
<g stroke="#617261" stroke-width="5" stroke-linejoin="round"><rect x="130" y="195" width="940" height="980" fill="#eef0e5"/><path d="M130 445H1070M130 705H1070M130 965H1070M430 195V445M760 195V445M310 445V705M660 445V705M900 445V705M430 705V965M760 705V965M310 965V1175M660 965V1175M900 965V1175" fill="none"/><rect x="335" y="335" width="530" height="235" fill="#d3ddcc"/><rect x="335" y="805" width="530" height="235" fill="#d3ddcc"/><rect x="390" y="415" width="85" height="120" rx="8" fill="#faf8ec"/><rect x="412" y="388" width="40" height="27" fill="#91a087"/><rect x="525" y="455" width="100" height="80" rx="8" fill="#faf8ec"/><rect x="547" y="430" width="55" height="25" fill="#91a087"/><rect x="700" y="425" width="80" height="110" rx="8" fill="#faf8ec"/><rect x="720" y="400" width="40" height="25" fill="#91a087"/><rect x="410" y="890" width="120" height="110" rx="8" fill="#faf8ec"/><rect x="440" y="865" width="60" height="25" fill="#91a087"/><rect x="625" y="925" width="145" height="75" rx="8" fill="#faf8ec"/><path d="M600 210V290M575 265L600 290L625 265M600 680V760M575 735L600 760L625 735" fill="none"/></g>
<g font-family="Arial,sans-serif" fill="#293b30" text-anchor="middle"><text x="600" y="115" font-size="54">Two levels, your contents</text><text x="600" y="630" font-size="46">Give the upper opening a group</text><text x="600" y="1105" font-size="46">Give the lower opening a group</text><text x="320" y="1290" font-size="44">Usable reach</text><text x="850" y="1290" font-size="44">Light choice</text><text x="600" y="1420" font-size="44">Connect both to the room finish</text></g></svg>
