<svg xmlns="http://www.w3.org/2000/svg" width="1200" height="1600" viewBox="0 0 1200 1600" role="img"><style>text{font-family:Arial,sans-serif;fill:#435d49}.label{font-size:36px}.title{font-size:46px;font-weight:600}.line{fill:none;stroke:#718777;stroke-width:4;stroke-linejoin:round;stroke-linecap:round}.soft{fill:#e2e8d9;stroke:#718777;stroke-width:4}</style><text x="56" y="88" class="title">A retained tub through the work</text><text x="60" y="170" class="title">01</text><text x="180" y="170" class="title">Record the visible condition</text><path d="M125, 340 h490 l-38,160 H163 Z" fill="#f1f3e8" stroke="#718777" stroke-width="5"/><ellipse cx="370" cy="340" rx="245" ry="66" fill="#edf0e3" stroke="#718777" stroke-width="5"/><ellipse cx="370" cy="340" rx="195" ry="37" class="line"/><path d="M650,295 H700" class="line"/><text x="720" y="295" class="label">Basin, rim and fittings</text><text x="720" y="350" class="label">Product information</text><path d="M60,570 H1140" stroke="#bdc7b4" stroke-width="3"/><text x="60" y="660" class="title">02</text><text x="180" y="660" class="title">Agree the work arrangement</text><path d="M125, 830 h490 l-38,160 H163 Z" fill="#f1f3e8" stroke="#718777" stroke-width="5"/><ellipse cx="370" cy="830" rx="245" ry="66" fill="#edf0e3" stroke="#718777" stroke-width="5"/><ellipse cx="370" cy="830" rx="195" ry="37" class="line"/><path d="M121,795 Q370,747 619,795 L579,945 Q375,905 155,960 Z" fill="#8b9d88" stroke="#435d49" stroke-width="5"/><path d="M650,785 H700" class="line"/><text x="720" y="785" class="label">Suitable protection</text><text x="720" y="840" class="label">Access and use</text><path d="M60,1060 H1140" stroke="#bdc7b4" stroke-width="3"/><text x="60" y="1150" class="title">03</text><text x="180" y="1150" class="title">Review the uncovered surface</text><path d="M125, 1320 h490 l-38,160 H163 Z" fill="#f1f3e8" stroke="#718777" stroke-width="5"/><ellipse cx="370" cy="1320" rx="245" ry="66" fill="#edf0e3" stroke="#718777" stroke-width="5"/><ellipse cx="370" cy="1320" rx="195" ry="37" class="line"/><path d="M650,1275 H700" class="line"/><text x="720" y="1275" class="label">Return to the initial record</text><text x="720" y="1330" class="label">Complete the agreed work</text></svg>